HIERARCHY
ROOT Hips
{
	OFFSET 0.000000 83.214638 0.000000
	CHANNELS 6 Xposition Yposition Zposition Xrotation Yrotation Zrotation
	JOINT Pelvis
	{
		OFFSET 0.000000 0.000000 0.000000
		CHANNELS 3 Xrotation Yrotation Zrotation
		JOINT LeftUpLeg
		{
			OFFSET 8.479700 -4.795502 -0.379100
			CHANNELS 3 Xrotation Yrotation Zrotation
			JOINT LeftLeg
			{
				OFFSET 0.024144 -32.555107 0.112900
				CHANNELS 3 Xrotation Yrotation Zrotation
				JOINT LeftFoot
				{
					OFFSET -0.024144 -32.638630 -3.012600
					CHANNELS 3 Xrotation Yrotation Zrotation
					JOINT LeftToeBase
					{
						OFFSET 0.970200 -13.225400 11.864200
						CHANNELS 3 Xrotation Yrotation Zrotation
						End Site
						{
							OFFSET 0.000000 12.319262 0.000000
						}
					}
					JOINT LFootTongue
					{
						OFFSET 1.142400 -1.059800 6.665200
						CHANNELS 3 Xrotation Yrotation Zrotation
						End Site
						{
							OFFSET 0.000000 12.319262 0.000000
						}
					}
				}
				JOINT LeftPantLeg
				{
					OFFSET 0.918482 -16.533964 -2.284700
					CHANNELS 3 Xrotation Yrotation Zrotation
					End Site
					{
						OFFSET 0.350399 24.744368 0.000000
					}
				}
			}
		}
		JOINT RightUpLeg
		{
			OFFSET -8.479700 -4.795502 -0.379100
			CHANNELS 3 Xrotation Yrotation Zrotation
			JOINT RightLeg
			{
				OFFSET -0.023144 -32.555092 0.112900
				CHANNELS 3 Xrotation Yrotation Zrotation
				JOINT RightFoot
				{
					OFFSET 0.023144 -32.638641 -3.012700
					CHANNELS 3 Xrotation Yrotation Zrotation
					JOINT RightToeBase
					{
						OFFSET -0.970200 -13.225400 11.864200
						CHANNELS 3 Xrotation Yrotation Zrotation
						End Site
						{
							OFFSET 0.000000 12.319244 0.000000
						}
					}
					JOINT RFootTongue
					{
						OFFSET -1.142200 -1.059800 6.665200
						CHANNELS 3 Xrotation Yrotation Zrotation
						End Site
						{
							OFFSET 0.000000 12.319243 0.000000
						}
					}
				}
				JOINT RightPantLeg
				{
					OFFSET -0.919482 -16.533978 -2.284800
					CHANNELS 3 Xrotation Yrotation Zrotation
					End Site
					{
						OFFSET -0.350400 24.744419 0.000000
					}
				}
			}
		}
	}
	JOINT Spine
	{
		OFFSET 0.000000 7.722000 1.166200
		CHANNELS 3 Xrotation Yrotation Zrotation
		JOINT Spine1
		{
			OFFSET 0.000000 12.024101 0.248800
			CHANNELS 3 Xrotation Yrotation Zrotation
			JOINT Spine2
			{
				OFFSET 0.000000 11.502998 -0.491200
				CHANNELS 3 Xrotation Yrotation Zrotation
				JOINT Neck
				{
					OFFSET 0.000000 18.430702 -3.123100
					CHANNELS 3 Xrotation Yrotation Zrotation
					JOINT Head
					{
						OFFSET 0.000000 9.051102 1.034000
						CHANNELS 3 Xrotation Yrotation Zrotation
						JOINT HairB
						{
							OFFSET 0.208400 24.786102 24.822300
							CHANNELS 3 Xrotation Yrotation Zrotation
							End Site
							{
								OFFSET 0.000000 32.263779 0.000000
							}
						}
						JOINT HairA
						{
							OFFSET -7.081100 24.428299 23.196600
							CHANNELS 3 Xrotation Yrotation Zrotation
							End Site
							{
								OFFSET 0.000000 32.263779 0.000000
							}
						}
						JOINT Hat
						{
							OFFSET 16.728800 15.048294 -15.439601
							CHANNELS 3 Xrotation Yrotation Zrotation
							End Site
							{
								OFFSET 0.000000 32.263779 0.000000
							}
						}
					}
				}
				JOINT LeftShoulder
				{
					OFFSET 6.197800 13.665199 -4.064700
					CHANNELS 3 Xrotation Yrotation Zrotation
					JOINT LeftArm
					{
						OFFSET 7.778100 -0.187103 -1.709300
						CHANNELS 3 Xrotation Yrotation Zrotation
						JOINT LeftForeArm
						{
							OFFSET 22.049376 0.000000 0.000000
							CHANNELS 3 Xrotation Yrotation Zrotation
							JOINT LeftHand
							{
								OFFSET 23.009392 0.000000 0.000000
								CHANNELS 3 Xrotation Yrotation Zrotation
								JOINT LeftHandThumb1
								{
									OFFSET 3.507191 -2.063065 3.133727
									CHANNELS 3 Xrotation Yrotation Zrotation
									JOINT LeftHandThumb2
									{
										OFFSET 3.101337 -1.790558 1.790558
										CHANNELS 3 Xrotation Yrotation Zrotation
										JOINT LeftHandThumb3
										{
											OFFSET 3.058640 -1.765907 1.765906
											CHANNELS 3 Xrotation Yrotation Zrotation
											End Site
											{
												OFFSET -0.415260 3.926476 -0.049563
											}
										}
									}
								}
								JOINT LeftHandIndex1
								{
									OFFSET 11.334419 -0.901459 3.706815
									CHANNELS 3 Xrotation Yrotation Zrotation
									JOINT LeftHandIndex2
									{
										OFFSET 3.283112 0.000000 0.000000
										CHANNELS 3 Xrotation Yrotation Zrotation
										JOINT LeftHandIndex3
										{
											OFFSET 3.323853 0.000000 0.000000
											CHANNELS 3 Xrotation Yrotation Zrotation
											End Site
											{
												OFFSET -1.135597 3.097809 0.402452
											}
										}
									}
								}
								JOINT LeftHandMiddle1
								{
									OFFSET 11.335861 0.000000 0.000000
									CHANNELS 3 Xrotation Yrotation Zrotation
									JOINT LeftHandMiddle2
									{
										OFFSET 3.410492 0.000000 0.000000
										CHANNELS 3 Xrotation Yrotation Zrotation
										JOINT LeftHandMiddle3
										{
											OFFSET 3.312172 0.000000 0.000000
											CHANNELS 3 Xrotation Yrotation Zrotation
											End Site
											{
												OFFSET -1.150200 3.080154 0.400270
											}
										}
									}
								}
								JOINT LeftHandRing1
								{
									OFFSET 11.514786 -0.013176 -3.003090
									CHANNELS 3 Xrotation Yrotation Zrotation
									JOINT LeftHandRing2
									{
										OFFSET 3.053307 0.000000 0.000000
										CHANNELS 3 Xrotation Yrotation Zrotation
										JOINT LeftHandRing3
										{
											OFFSET 3.295807 0.000000 0.000000
											CHANNELS 3 Xrotation Yrotation Zrotation
											End Site
											{
												OFFSET -1.281006 3.013344 0.375733
											}
										}
									}
								}
								JOINT LeftHandPinky1
								{
									OFFSET 10.518692 -0.960396 -5.730441
									CHANNELS 3 Xrotation Yrotation Zrotation
									JOINT LeftHandPinky2
									{
										OFFSET 2.861649 0.000000 0.000000
										CHANNELS 3 Xrotation Yrotation Zrotation
										JOINT LeftHandPinky3
										{
											OFFSET 2.863380 0.000000 0.000000
											CHANNELS 3 Xrotation Yrotation Zrotation
											End Site
											{
												OFFSET -0.843597 2.711159 0.369971
											}
										}
									}
								}
							}
							JOINT LSleeve
							{
								OFFSET 6.676277 -0.344902 -1.011730
								CHANNELS 3 Xrotation Yrotation Zrotation
								End Site
								{
									OFFSET 0.000000 14.885353 0.000000
								}
							}
						}
					}
				}
				JOINT RightShoulder
				{
					OFFSET -6.197800 13.665199 -4.064700
					CHANNELS 3 Xrotation Yrotation Zrotation
					JOINT RightArm
					{
						OFFSET -7.778100 -0.187103 -1.709300
						CHANNELS 3 Xrotation Yrotation Zrotation
						JOINT RightForeArm
						{
							OFFSET -22.049376 0.000000 0.000000
							CHANNELS 3 Xrotation Yrotation Zrotation
							JOINT RightHand
							{
								OFFSET -23.009392 0.000000 0.000000
								CHANNELS 3 Xrotation Yrotation Zrotation
								JOINT RightHandThumb1
								{
									OFFSET -3.507191 -2.063065 3.133727
									CHANNELS 3 Xrotation Yrotation Zrotation
									JOINT RightHandThumb2
									{
										OFFSET -3.101337 -1.790558 1.790558
										CHANNELS 3 Xrotation Yrotation Zrotation
										JOINT RightHandThumb3
										{
											OFFSET -3.058640 -1.765907 1.765906
											CHANNELS 3 Xrotation Yrotation Zrotation
											End Site
											{
												OFFSET 0.415260 3.926476 -0.049563
											}
										}
									}
								}
								JOINT RightHandIndex1
								{
									OFFSET -11.334419 -0.901459 3.706815
									CHANNELS 3 Xrotation Yrotation Zrotation
									JOINT RightHandIndex2
									{
										OFFSET -3.283112 0.000000 0.000000
										CHANNELS 3 Xrotation Yrotation Zrotation
										JOINT RightHandIndex3
										{
											OFFSET -3.323853 0.000000 0.000000
											CHANNELS 3 Xrotation Yrotation Zrotation
											End Site
											{
												OFFSET 1.135597 3.097809 0.402452
											}
										}
									}
								}
								JOINT RightHandMiddle1
								{
									OFFSET -11.335861 0.000000 0.000000
									CHANNELS 3 Xrotation Yrotation Zrotation
									JOINT RightHandMiddle2
									{
										OFFSET -3.410492 0.000000 0.000000
										CHANNELS 3 Xrotation Yrotation Zrotation
										JOINT RightHandMiddle3
										{
											OFFSET -3.312172 0.000000 0.000000
											CHANNELS 3 Xrotation Yrotation Zrotation
											End Site
											{
												OFFSET 1.150200 3.080154 0.400270
											}
										}
									}
								}
								JOINT RightHandRing1
								{
									OFFSET -11.514786 -0.013176 -3.003090
									CHANNELS 3 Xrotation Yrotation Zrotation
									JOINT RightHandRing2
									{
										OFFSET -3.053307 0.000000 0.000000
										CHANNELS 3 Xrotation Yrotation Zrotation
										JOINT RightHandRing3
										{
											OFFSET -3.295807 0.000000 0.000000
											CHANNELS 3 Xrotation Yrotation Zrotation
											End Site
											{
												OFFSET 1.281006 3.013344 0.375733
											}
										}
									}
								}
								JOINT RightHandPinky1
								{
									OFFSET -10.518692 -0.960396 -5.730441
									CHANNELS 3 Xrotation Yrotation Zrotation
									JOINT RightHandPinky2
									{
										OFFSET -2.861649 0.000000 0.000000
										CHANNELS 3 Xrotation Yrotation Zrotation
										JOINT RightHandPinky3
										{
											OFFSET -2.863380 0.000000 0.000000
											CHANNELS 3 Xrotation Yrotation Zrotation
											End Site
											{
												OFFSET 0.843597 2.711159 0.369971
											}
										}
									}
								}
							}
							JOINT RSleeve
							{
								OFFSET -6.676277 -0.344902 -1.011730
								CHANNELS 3 Xrotation Yrotation Zrotation
								End Site
								{
									OFFSET 0.000000 14.885353 0.000000
								}
							}
						}
					}
				}
				JOINT Backpack
				{
					OFFSET 0.000000 -2.471497 36.677502
					CHANNELS 3 Xrotation Yrotation Zrotation
					End Site
					{
						OFFSET 0.000000 20.427315 0.000000
					}
				}
				JOINT Hood
				{
					OFFSET 0.000000 18.754097 -10.431000
					CHANNELS 3 Xrotation Yrotation Zrotation
					JOINT Hood1
					{
						OFFSET 0.000000 -5.011002 -7.685901
						CHANNELS 3 Xrotation Yrotation Zrotation
						End Site
						{
							OFFSET 0.000000 9.175140 0.000000
						}
					}
				}
				JOINT LHoodieString
				{
					OFFSET 5.250500 16.397697 3.089900
					CHANNELS 3 Xrotation Yrotation Zrotation
					JOINT LHoodieString1
					{
						OFFSET 0.257700 -6.364304 3.694600
						CHANNELS 3 Xrotation Yrotation Zrotation
						JOINT LHoodieString2
						{
							OFFSET 0.000000 -9.643799 2.679100
							CHANNELS 3 Xrotation Yrotation Zrotation
							End Site
							{
								OFFSET 0.000000 10.009018 0.000000
							}
						}
					}
				}
				JOINT RHoodieString
				{
					OFFSET -5.250500 16.397697 3.089900
					CHANNELS 3 Xrotation Yrotation Zrotation
					JOINT RHoodieString1
					{
						OFFSET -0.257700 -6.364304 3.694600
						CHANNELS 3 Xrotation Yrotation Zrotation
						JOINT RHoodieString2
						{
							OFFSET 0.000000 -9.643799 2.679100
							CHANNELS 3 Xrotation Yrotation Zrotation
							End Site
							{
								OFFSET 0.000000 10.009018 0.000000
							}
						}
					}
				}
			}
			JOINT LBackpack_Strap
			{
				OFFSET 15.223200 -7.719803 -6.610900
				CHANNELS 3 Xrotation Yrotation Zrotation
				End Site
				{
					OFFSET 0.000000 16.040596 0.000000
				}
			}
			JOINT RBackpack_Strap
			{
				OFFSET -15.223000 -7.719803 -6.610900
				CHANNELS 3 Xrotation Yrotation Zrotation
				End Site
				{
					OFFSET 0.000000 16.040596 0.000000
				}
			}
		}
	}
	JOINT BoyFacialAnim_Joint
	{
		OFFSET 1.000000 -82.208099 -1.550900
		CHANNELS 3 Xrotation Yrotation Zrotation
		End Site
		{
			OFFSET 0.000000 30.012791 0.000000
		}
	}
}
MOTION
Frames: 4
Frame Time: 0.016667
-0.258330 77.263016 0.131957 -6.087191 -43.034976 -4.015874 -0.000000 -0.000001 0.000000 -27.325080 5.711028 13.933736 33.960288 -14.110983 -0.201467 -4.092983 0.706252 -8.143535 -0.000000 -0.000000 0.000000 -0.000000 -0.000000 -0.000000 0.000000 -0.000002 0.000001 -4.368606 -13.685360 -15.656808 32.702649 -9.020090 -0.425630 -20.501028 -4.052708 17.150764 -0.000000 0.000001 -0.000000 -0.000000 0.000001 -0.000000 -0.000002 -0.000000 0.000002 5.833934 4.645658 -1.245241 11.836535 9.038709 -3.084350 11.836537 9.038698 -3.084346 -4.303011 -1.272906 0.206302 -6.271931 20.437791 -0.377163 -0.000001 -0.000000 0.000000 -0.000001 -0.000000 0.000000 -0.000001 -0.000000 0.000000 1.392500 -0.696018 -7.877853 -14.260094 2.394326 -63.277113 9.865079 -47.524934 5.927936 16.172857 0.915174 18.795449 9.143005 4.783902 -5.500146 -0.301067 0.108005 0.795315 0.000002 -0.000003 -0.000004 -0.902044 -6.980981 -3.808338 0.026641 0.799146 -16.417989 -0.000000 -0.000003 -0.000002 1.947852 9.683082 -14.539687 -0.466576 -1.573694 -21.879814 0.000004 0.000000 0.000000 2.605923 14.896822 -31.345200 -0.561681 -2.697439 -32.012079 0.000002 0.000001 -0.000000 4.170654 18.495007 -34.987282 -0.700314 -5.780875 -39.372516 -0.000004 -0.000001 -0.000002 -0.000001 -0.000003 0.000000 1.410969 9.461532 9.792735 1.220062 -24.270717 60.532920 -6.660707 41.858432 8.043840 6.225239 12.322319 11.673326 -8.895703 -4.903269 -0.383688 7.904868 -19.192205 -2.856787 -0.000000 0.000001 0.000001 -1.085550 -1.215404 4.525422 0.128084 -1.119905 16.942412 0.000000 0.000001 0.000000 -0.665784 -2.894575 12.730853 -0.670880 1.818951 30.578299 -0.000000 0.000001 -0.000003 2.420458 -7.405549 21.762818 -0.974629 3.771131 37.430372 -0.000000 -0.000000 0.000002 3.480955 -10.055007 24.322532 -1.465924 7.881249 41.092102 -0.000003 -0.000001 0.000002 -0.000002 -0.000000 -0.000002 -0.000000 0.000000 0.000000 -0.000000 0.000000 0.000000 -0.000000 0.000000 0.000000 -0.000000 0.000000 0.000000 -0.000000 0.000000 -0.000000 -0.000002 0.000001 -0.000000 -0.000000 0.000000 0.000000 -0.000000 0.000000 -0.000000 -0.000002 0.000001 -0.000000 0.000001 0.000001 -0.000000 0.000001 0.000001 -0.000000 -0.000000 -0.000001 0.000000 
-0.056176 77.319756 -0.077184 -6.181524 -43.167007 -4.090259 -0.000000 0.000002 0.000000 -27.225860 5.758964 14.000052 33.400264 -13.809084 -0.354817 -3.600902 0.435857 -8.147260 -0.000000 0.000002 -0.000000 -0.000000 0.000002 0.000000 0.000001 0.000002 0.000000 -4.789779 -13.902140 -15.766669 32.960990 -8.427031 -0.437776 -20.295311 -3.982496 16.908422 0.000000 -0.000002 0.000000 0.000000 -0.000002 0.000000 -0.000001 -0.000003 -0.000000 5.865956 4.630685 -1.246947 11.898883 9.008188 -3.077233 11.898880 9.008195 -3.077234 -4.429662 -1.267877 0.288871 -6.490515 20.388209 -0.421787 -0.000000 -0.000000 -0.000000 -0.000000 -0.000000 -0.000000 -0.000000 -0.000000 -0.000000 1.401859 -0.822652 -7.787730 -14.062057 2.347404 -63.133556 10.053581 -47.618146 5.985789 16.200688 0.994747 19.382993 9.158609 4.725378 -5.454717 0.188500 0.417723 0.798301 0.000002 -0.000001 0.000002 -0.958181 -6.941313 -4.413347 0.024148 0.791043 -16.487791 -0.000001 0.000000 -0.000002 2.036493 9.671575 -15.139975 -0.465807 -1.571751 -21.854481 -0.000003 -0.000002 0.000001 2.574105 14.834117 -31.340162 -0.563083 -2.699671 -32.043187 0.000004 -0.000003 -0.000003 4.238402 18.498959 -35.334122 -0.697801 -5.785145 -39.451330 -0.000003 -0.000002 -0.000002 0.000001 0.000004 -0.000002 1.466865 9.326475 9.780290 0.638253 -23.863786 60.130745 -6.816779 41.825422 8.076357 6.034884 12.620485 11.250445 -8.972878 -4.851972 -0.420208 8.125508 -18.985131 -2.690102 0.000001 0.000000 0.000001 -1.120328 -1.139234 4.966067 0.131794 -1.131926 16.816861 -0.000000 -0.000000 0.000002 -0.659745 -2.887938 12.813752 -0.667701 1.813542 30.476857 0.000000 0.000000 -0.000000 2.379486 -7.285908 22.042052 -0.967372 3.761637 37.319389 -0.000000 -0.000002 -0.000002 3.532389 -10.190419 24.333007 -1.452841 7.866208 40.832029 0.000001 -0.000000 -0.000005 0.000001 -0.000000 0.000001 0.000000 0.000001 -0.000000 0.000000 0.000001 -0.000000 0.000000 0.000001 -0.000000 0.000000 0.000001 -0.000000 0.000000 0.000001 -0.000000 0.000000 0.000001 0.000000 0.000000 0.000001 -0.000000 0.000000 0.000001 -0.000000 0.000000 0.000001 0.000000 0.000001 0.000001 -0.000000 0.000001 0.000001 -0.000000 -0.000000 0.000002 0.000000 
0.160837 77.407990 -0.365504 -6.194034 -43.318740 -4.158981 0.000000 -0.000002 -0.000000 -27.122183 5.827383 14.160309 32.557705 -13.388051 -0.544754 -2.907686 0.041749 -8.209079 -0.000000 -0.000001 -0.000000 -0.000000 -0.000001 -0.000000 0.000000 -0.000000 -0.000001 -5.350834 -14.205003 -15.760692 33.209473 -7.787996 -0.511351 -20.017746 -3.853977 16.566861 0.000000 0.000000 -0.000000 0.000000 0.000000 -0.000000 -0.000001 -0.000000 -0.000000 5.908573 4.609588 -1.241699 11.981814 8.966216 -3.057287 11.981821 8.966198 -3.057284 -4.631370 -1.213643 0.393660 -6.738248 20.342059 -0.503910 0.000001 0.000000 -0.000000 0.000001 0.000000 -0.000000 0.000001 0.000000 -0.000000 1.424242 -0.917259 -7.638833 -13.828624 2.336946 -63.082930 10.239102 -47.620793 6.058571 16.425401 0.929079 20.144063 9.173007 4.617639 -5.382490 1.007826 0.982139 0.784564 0.000003 0.000001 -0.000003 -1.080095 -6.902735 -5.464033 0.021393 0.782119 -16.564495 -0.000003 -0.000002 -0.000000 2.179154 9.621908 -16.188807 -0.471063 -1.570373 -21.850173 -0.000002 0.000000 0.000002 2.576065 14.731910 -31.569749 -0.560848 -2.704453 -32.093833 0.000001 -0.000003 0.000001 4.353785 18.523953 -35.859921 -0.692993 -5.791223 -39.531082 -0.000002 0.000000 -0.000000 -0.000002 -0.000000 -0.000001 1.548601 9.197634 9.728921 -0.123824 -23.268392 59.659947 -6.921682 41.713424 8.099059 5.976515 12.974407 10.588735 -9.096288 -4.769454 -0.477904 8.264836 -18.775744 -2.508971 0.000001 -0.000001 -0.000000 -1.151629 -1.039409 5.376214 0.137452 -1.150280 16.624537 -0.000001 -0.000003 0.000005 -0.653074 -2.883171 12.864825 -0.661494 1.799798 30.309125 -0.000000 0.000002 -0.000002 2.335066 -7.175466 22.316863 -0.956278 3.749341 37.136647 0.000000 -0.000001 0.000004 3.606873 -10.405690 24.310088 -1.436094 7.850933 40.538047 -0.000002 -0.000003 0.000001 0.000001 -0.000002 0.000002 -0.000001 -0.000000 0.000000 -0.000001 -0.000000 0.000000 -0.000001 -0.000000 0.000000 -0.000001 -0.000000 0.000000 -0.000001 -0.000000 0.000000 -0.000001 -0.000000 0.000000 -0.000001 -0.000000 0.000000 -0.000001 -0.000000 0.000000 -0.000001 -0.000000 0.000000 0.000000 -0.000000 -0.000000 0.000000 -0.000000 -0.000000 0.000000 -0.000002 -0.000000 
0.408082 77.590218 -0.844152 -6.081621 -43.505307 -4.247031 -0.000000 -0.000001 0.000000 -26.917685 5.964172 14.555015 30.967917 -12.688879 -0.824929 -1.716642 -0.695522 -8.394621 0.000000 0.000002 0.000000 0.000000 0.000002 0.000000 -0.000001 -0.000000 0.000001 -6.078797 -14.787604 -15.479123 33.226702 -6.954178 -0.769314 -19.506037 -3.645383 16.031422 0.000000 -0.000002 0.000000 0.000000 -0.000002 0.000000 0.000002 0.000001 0.000000 5.988041 4.570884 -1.213701 12.136441 8.890873 -2.994821 12.136439 8.890866 -2.994820 -4.947637 -1.039904 0.521743 -7.184480 20.285942 -0.667902 0.000000 0.000000 -0.000000 0.000000 0.000000 -0.000000 0.000000 0.000000 -0.000000 1.480746 -0.968469 -7.357329 -13.473011 2.397443 -63.225224 10.444986 -47.365152 6.152046 17.081980 0.460964 21.365431 9.194227 4.397445 -5.240288 2.808067 2.235753 0.718589 -0.000003 0.000001 -0.000001 -1.409021 -6.869429 -7.861239 0.012214 0.773622 -16.652701 0.000001 -0.000000 -0.000002 2.493105 9.474531 -18.639096 -0.485899 -1.571231 -21.897081 -0.000000 -0.000002 -0.000002 2.669376 14.511123 -32.472478 -0.555791 -2.714343 -32.197191 0.000000 -0.000002 0.000001 4.607264 18.590195 -36.929416 -0.682543 -5.802188 -39.617450 -0.000003 0.000000 -0.000000 -0.000003 -0.000004 0.000002 1.699777 9.063900 9.572954 -1.390748 -22.194244 59.019426 -6.909169 41.325370 8.080192 6.289874 13.518284 9.316057 -9.337839 -4.606799 -0.590520 8.194698 -18.557868 -2.290260 0.000002 -0.000000 0.000000 -1.167075 -0.886029 5.671162 0.148042 -1.184228 16.268826 -0.000000 0.000002 0.000000 -0.639255 -2.885171 12.772655 -0.654324 1.769147 29.971416 -0.000000 -0.000001 -0.000002 2.289839 -7.091434 22.555988 -0.934096 3.724404 36.768681 -0.000001 -0.000001 -0.000002 3.751389 -10.858919 24.169886 -1.411333 7.835642 40.176344 0.000001 -0.000002 -0.000000 0.000002 -0.000000 -0.000002 0.000001 -0.000001 0.000000 0.000001 -0.000001 0.000000 0.000001 -0.000001 0.000000 0.000001 -0.000001 0.000000 0.000001 -0.000001 0.000000 0.000001 -0.000001 0.000001 0.000001 -0.000001 0.000000 0.000001 -0.000001 0.000000 0.000001 -0.000001 0.000001 -0.000001 0.000003 -0.000000 -0.000001 0.000003 -0.000000 -0.000000 -0.000001 0.000000 
